<svg xmlns="http://www.w3.org/2000/svg" viewBox="0 0 16 12">
  <title>Ресурс 1</title>
  <g id="Слой_2" data-name="Слой 2">
    <g id="Слой_1-2" data-name="Слой 1">
      <path d="M15.56,2.52A1.44,1.44,0,0,1,16,3.58v9a1.5,1.5,0,0,1-1.5,1.5H1.5a1.44,1.44,0,0,1-1.06-.44A1.44,1.44,0,0,1,0,12.58v-9A1.44,1.44,0,0,1,.44,2.52,1.44,1.44,0,0,1,1.5,2.08h13A1.44,1.44,0,0,1,15.56,2.52ZM1.5,3.58V4.86c.73.58,2.13,1.69,4.22,3.31L6,8.42a6.87,6.87,0,0,0,1,.75,1.85,1.85,0,0,0,1,.41,1.85,1.85,0,0,0,1-.41,6.87,6.87,0,0,0,1-.75l.28-.25q3.12-2.4,4.22-3.31V3.58Zm13,9V6.77L10.88,9.64a9.25,9.25,0,0,1-1.29.94,3.16,3.16,0,0,1-1.59.5,3.32,3.32,0,0,1-1.62-.5,11.46,11.46,0,0,1-1.29-.94L1.5,6.77v5.81Z" transform="translate(0 -2.08)" style="fill: #87328d"/>
    </g>
  </g>
</svg>
