<svg xmlns="http://www.w3.org/2000/svg" viewBox="0 0 48 38"><defs><style>.cls-1{opacity:0.7;}.cls-2{fill:#fff;}</style></defs><title>Mail</title><g id="Слой_2" data-name="Слой 2"><g id="图层_1" data-name="图层 1"><g class="cls-1"><path class="cls-2" d="M23.87,22.42a6,6,0,0,1-3.69-1.26L1.71,5.53A2,2,0,0,1,4.29,2.47L22.7,18.05A2,2,0,0,0,25.15,18L43.72,2.47a2,2,0,1,1,2.56,3.06L27.66,21.11A6.16,6.16,0,0,1,23.87,22.42Z"/></g><path class="cls-2" d="M41.94,38H6.06A6.07,6.07,0,0,1,0,31.94V6.06A6.07,6.07,0,0,1,6.06,0H41.94A6.07,6.07,0,0,1,48,6.06V31.94A6.07,6.07,0,0,1,41.94,38ZM6.06,4A2.07,2.07,0,0,0,4,6.06V31.94A2.07,2.07,0,0,0,6.06,34H41.94A2.07,2.07,0,0,0,44,31.94V6.06A2.07,2.07,0,0,0,41.94,4Z"/></g></g></svg>