<svg xmlns="http://www.w3.org/2000/svg" viewBox="0 0 44.31 44"><defs><style>.cls-1{fill:#fff;}.cls-2{opacity:0.7;}</style></defs><title>Phone</title><g id="Слой_2" data-name="Слой 2"><g id="图层_1" data-name="图层 1"><path class="cls-1" d="M8,18a8,8,0,1,1,8-8A8,8,0,0,1,8,18ZM8,6a4,4,0,1,0,4,4A4,4,0,0,0,8,6Z"/><path class="cls-1" d="M34,44a8,8,0,1,1,8-8A8,8,0,0,1,34,44Zm0-12a4,4,0,1,0,4,4A4,4,0,0,0,34,32Z"/><path class="cls-1" d="M33,44C21.94,44,2.22,24.46,0,11.33A2,2,0,0,1,4,10.67C5.8,21.63,24,40,33,40a2,2,0,0,1,0,4Z"/><g class="cls-2"><path class="cls-1" d="M34.64,23.46A2,2,0,0,1,33,22.53a37.13,37.13,0,0,0-11-11.18A2,2,0,0,1,24.09,8,41.2,41.2,0,0,1,36.33,20.39a2,2,0,0,1-1.69,3.07Z"/></g><g class="cls-2"><path class="cls-1" d="M42.31,20.77a2,2,0,0,1-1.73-1,45.08,45.08,0,0,0-15.89-16,2,2,0,1,1,2-3.44A49.08,49.08,0,0,1,44,17.76a2,2,0,0,1-.72,2.74A2,2,0,0,1,42.31,20.77Z"/></g></g></g></svg>