<svg xmlns="http://www.w3.org/2000/svg" viewBox="0 0 38 38"><defs><style>.cls-1{fill:#fff;}.cls-2{opacity:0.7;}</style></defs><title>Time</title><g id="Слой_2" data-name="Слой 2"><g id="图层_1" data-name="图层 1"><path class="cls-1" d="M19,38A19,19,0,1,1,38,19,19,19,0,0,1,19,38ZM19,4A15,15,0,1,0,34,19,15,15,0,0,0,19,4Z"/><g class="cls-2"><path class="cls-1" d="M19,22a2.06,2.06,0,0,1-1-.26A2,2,0,0,1,17,20V14a2,2,0,0,1,4,0v2.47l2-1.18A2,2,0,1,1,25,18.71l-5,3A1.91,1.91,0,0,1,19,22Z"/></g></g></g></svg>