<svg xmlns="http://www.w3.org/2000/svg" width="22" height="18.56" viewBox="0 0 22 18.56">
  <defs>
    <style>
      .cls-1 {
        fill: #c9c9c9;
        fill-rule: evenodd;
      }
    </style>
  </defs>
  <path id="Forma_1" data-name="Forma 1" class="cls-1" d="M1245.25,6435.28l-16.23,6.33a0.794,0.794,0,0,0-.45,1.02l4.16,10.65a0.789,0.789,0,0,0,1.02.44l16.23-6.33a0.794,0.794,0,0,0,.45-1.02l-4.16-10.65A0.789,0.789,0,0,0,1245.25,6435.28Zm-2.86,8.67c1.73,0.38,6.33,1.72,6.33,1.72a0.442,0.442,0,0,1,.27.45,0.345,0.345,0,0,1-.38.3s-4.82-1.22-6.64-1.63a0.13,0.13,0,0,0-.15.06l-1.09,1.87a0.546,0.546,0,0,1-.64.25l-2.09-.64a0.117,0.117,0,0,0-.12.04c-1.04,1.54-3.74,5.71-3.74,5.71a0.41,0.41,0,0,1-.53.05,0.45,0.45,0,0,1-.11-0.52s2.49-4.09,3.48-5.52a0.092,0.092,0,0,0-.06-0.13l-6.73-2.51a0.514,0.514,0,0,1-.36-0.55,0.4,0.4,0,0,1,.24-0.31,0.511,0.511,0,0,1,.3,0l9.51,3.4a0.408,0.408,0,0,0,.19-0.01,0.333,0.333,0,0,0,.14-0.12l4.7-8.95a0.473,0.473,0,0,1,.22-0.2,0.375,0.375,0,0,1,.38.06,0.5,0.5,0,0,1,.11.65l-3.26,6.43S1242.32,6443.94,1242.39,6443.95Z" transform="translate(-1228.5 -6435.22)"/>
</svg>
