<svg xmlns="http://www.w3.org/2000/svg" width="16.88" height="16.78" viewBox="0 0 16.88 16.78">
  <defs>
    <style>
      .cls-1 {
        fill: #c1c1c1;
        fill-rule: evenodd;
      }
    </style>
  </defs>
  <path id="google" class="cls-1" d="M1307.74,7085.37c0-1.52-.89-2.27-1.87-3.08l-0.8-.62a1.2,1.2,0,0,1-.58-0.95,1.558,1.558,0,0,1,.62-1.08,3.567,3.567,0,0,0,.29-6.1h1.38l1.42-.79h-4.58a6.133,6.133,0,0,0-3.98,1.21,3.938,3.938,0,0,0-1.42,2.95,3.5,3.5,0,0,0,3.69,3.46c0.22,0,.47-0.02.71-0.04a1.942,1.942,0,0,0-.22.86,2.282,2.282,0,0,0,.67,1.49,9.687,9.687,0,0,0-4.25,1.02,3.163,3.163,0,0,0-1.71,2.69c0,1.63,1.55,3.15,4.78,3.15C1305.71,7089.54,1307.74,7087.44,1307.74,7085.37Zm-4.79-5.61c-1.91,0-2.78-2.45-2.78-3.92a2.543,2.543,0,0,1,.49-1.64,2.093,2.093,0,0,1,1.56-.72c1.85,0,2.8,2.47,2.8,4.05a2.214,2.214,0,0,1-.55,1.61A2.373,2.373,0,0,1,1302.95,7079.76Zm0.03,8.85c-2.38,0-3.92-1.12-3.92-2.69a2.475,2.475,0,0,1,1.92-2.26,8.979,8.979,0,0,1,2.33-.36,4.02,4.02,0,0,1,.51.02c1.69,1.19,2.43,1.79,2.43,2.91C1306.25,7087.6,1305.11,7088.61,1302.98,7088.61Zm4.96-7.52h2.41v2.39h1.2v-2.39h2.41v-1.19h-2.41v-2.38h-1.2v2.38h-2.41v1.19Z" transform="translate(-1297.09 -7072.75)"/>
</svg>
