<svg xmlns="http://www.w3.org/2000/svg" width="14.438" height="13.71" viewBox="0 0 14.438 13.71">
  <defs>
    <style>
      .cls-1 {
        fill-rule: evenodd;
        opacity: 0.3;
      }
    </style>
  </defs>
  <path id="instagram" class="cls-1" d="M700.853,5442.52v5.31h-3.1v-4.95c0-1.25-.448-2.09-1.568-2.09a1.693,1.693,0,0,0-1.589,1.12,2.082,2.082,0,0,0-.1.75v5.17h-3.1s0.042-8.39,0-9.26h3.1v1.32c-0.006.01-.014,0.02-0.02,0.03h0.02v-0.03a3.077,3.077,0,0,1,2.791-1.53C699.326,5438.36,700.853,5439.68,700.853,5442.52Zm-12.693-8.41a1.605,1.605,0,1,0-.041,3.2h0.021A1.606,1.606,0,1,0,688.16,5434.11Zm-1.569,13.72h3.1v-9.26h-3.1v9.26Z" transform="translate(-686.406 -5434.13)"/>
</svg>
