<svg xmlns="http://www.w3.org/2000/svg" width="20" height="18" viewBox="0 0 20 18">
  <defs>
    <style>
      .cls-1 {
        fill: #c9c9c9;
        fill-rule: evenodd;
      }
    </style>
  </defs>
  <path class="cls-1" d="M986.353,6444.63l4.609,1.78,1.784,5.93a0.537,0.537,0,0,0,.861.27l2.569-2.17a0.743,0.743,0,0,1,.934-0.02l4.63,3.47a0.537,0.537,0,0,0,.85-0.34l3.4-16.87a0.551,0.551,0,0,0-.73-0.64l-18.912,7.54A0.568,0.568,0,0,0,986.353,6444.63Zm6.105,0.83,9-5.73a0.157,0.157,0,0,1,.19.25l-7.429,7.15a1.618,1.618,0,0,0-.478.95l-0.253,1.94a0.231,0.231,0,0,1-.454.03l-0.974-3.53A0.956,0.956,0,0,1,992.458,6445.46Z" transform="translate(-986 -6436)"/>
</svg>
