<svg xmlns="http://www.w3.org/2000/svg" width="16.84" height="14.32" viewBox="0 0 16.84 14.32">
  <defs>
    <style>
      .cls-1 {
        fill: #c1c1c1;
        fill-rule: evenodd;
      }
    </style>
  </defs>
  <path id="twiter" class="cls-1" d="M1351.12,7077.42c0-.16,0-0.31-0.01-0.47a7.176,7.176,0,0,0,1.73-1.83,6.65,6.65,0,0,1-1.99.53,3.483,3.483,0,0,0,1.52-1.96,6.534,6.534,0,0,1-2.19.83,3.411,3.411,0,0,0-5.98,2.39,3.77,3.77,0,0,0,.09.83,9.72,9.72,0,0,1-7.13-3.9,3.806,3.806,0,0,0,1.07,4.89,3.275,3.275,0,0,1-1.57-.47v0.05a3.651,3.651,0,0,0,2.78,3.6,3.443,3.443,0,0,1-.91.12,2.756,2.756,0,0,1-.65-0.07,3.512,3.512,0,0,0,3.23,2.55,6.778,6.778,0,0,1-4.3,1.55,7.518,7.518,0,0,1-.82-0.05,9.388,9.388,0,0,0,5.3,1.64C1347.65,7087.65,1351.12,7082.17,1351.12,7077.42Z" transform="translate(-1336 -7073.34)"/>
</svg>
