<svg xmlns="http://www.w3.org/2000/svg" width="17.531" height="10.56" viewBox="0 0 17.531 10.56">
  <defs>
    <style>
      .cls-1 {
        fill-rule: evenodd;
        opacity: 0.3;
      }
    </style>
  </defs>
  <path id="vk" class="cls-1" d="M649.562,5445.76a0.831,0.831,0,0,0-.06-0.12,9.379,9.379,0,0,0-1.744-2.13l-0.018-.02-0.009-.01-0.009-.01h-0.009c-0.39-.39-0.637-0.66-0.74-0.79a0.776,0.776,0,0,1-.128-0.78,7.51,7.51,0,0,1,.822-1.27c0.249-.34.447-0.61,0.593-0.82,1.054-1.47,1.51-2.42,1.37-2.83l-0.054-.09a0.527,0.527,0,0,0-.283-0.16,1.359,1.359,0,0,0-.585-0.03l-2.63.02a0.392,0.392,0,0,0-.182.01l-0.119.03-0.046.02-0.036.03a0.39,0.39,0,0,0-.1.1,0.622,0.622,0,0,0-.091.17,16.123,16.123,0,0,1-.977,2.17c-0.225.4-.432,0.74-0.621,1.03a5.394,5.394,0,0,1-.475.65,2.819,2.819,0,0,1-.347.33,0.367,0.367,0,0,1-.237.11,1.055,1.055,0,0,0-.156-0.04,0.66,0.66,0,0,1-.205-0.24,1.066,1.066,0,0,1-.105-0.37c-0.018-.15-0.029-0.28-0.032-0.39s0-.27,0-0.47,0.01-.33.01-0.4c0-.25,0-0.51.013-0.8s0.017-.51.023-0.68,0.009-.34.009-0.53a2.268,2.268,0,0,0-.032-0.43,1.527,1.527,0,0,0-.1-0.31,0.487,0.487,0,0,0-.188-0.23,0.857,0.857,0,0,0-.306-0.13,5.757,5.757,0,0,0-1.232-.13,5.922,5.922,0,0,0-2.183.23,1.263,1.263,0,0,0-.347.29c-0.11.14-.125,0.22-0.046,0.23a1.106,1.106,0,0,1,.776.42l0.055,0.11a1.925,1.925,0,0,1,.128.45,4.519,4.519,0,0,1,.082.7,7.694,7.694,0,0,1,0,1.2q-0.045.51-.086,0.78a1.7,1.7,0,0,1-.124.46c-0.055.11-.091,0.18-0.109,0.21s-0.034.04-.046,0.05a0.693,0.693,0,0,1-.247.05,0.576,0.576,0,0,1-.31-0.14,2.13,2.13,0,0,1-.379-0.37,5.277,5.277,0,0,1-.443-0.66c-0.164-.28-0.335-0.62-0.511-1l-0.146-.28c-0.092-.18-0.217-0.44-0.375-0.79s-0.3-.67-0.42-0.99a0.616,0.616,0,0,0-.219-0.31l-0.046-.03a0.512,0.512,0,0,0-.146-0.08,1.437,1.437,0,0,0-.21-0.07l-2.5.02a0.594,0.594,0,0,0-.52.19l-0.037.05a0.383,0.383,0,0,0-.028.16,0.864,0.864,0,0,0,.055.26c0.366,0.9.763,1.78,1.192,2.62s0.8,1.52,1.119,2.03,0.639,1,.968,1.46,0.546,0.75.652,0.87,0.191,0.23.252,0.29l0.228,0.23a5.364,5.364,0,0,0,.644.56,10.1,10.1,0,0,0,.94.63,4.847,4.847,0,0,0,1.2.51,3.655,3.655,0,0,0,1.334.16h1.05a0.72,0.72,0,0,0,.484-0.21l0.036-.05a0.506,0.506,0,0,0,.069-0.17,1.066,1.066,0,0,0,.031-0.27,3.384,3.384,0,0,1,.06-0.75,2.144,2.144,0,0,1,.155-0.5,1.362,1.362,0,0,1,.2-0.28,0.567,0.567,0,0,1,.156-0.14,0.144,0.144,0,0,1,.073-0.03,0.53,0.53,0,0,1,.516.14,3.514,3.514,0,0,1,.557.56c0.173,0.23.382,0.47,0.625,0.75a4.5,4.5,0,0,0,.64.62l0.182,0.11a1.876,1.876,0,0,0,.475.21,0.941,0.941,0,0,0,.512.05l2.337-.04a1.018,1.018,0,0,0,.539-0.12,0.448,0.448,0,0,0,.228-0.26,0.791,0.791,0,0,0,0-.33A1.12,1.12,0,0,0,649.562,5445.76Z" transform="translate(-632.125 -5436.22)"/>
</svg>
