<svg xmlns="http://www.w3.org/2000/svg" width="20" height="20" viewBox="0 0 20 20">
  <defs>
    <style>
      .cls-1 {
        fill: #c9c9c9;
        fill-rule: evenodd;
      }
    </style>
  </defs>
  <path id="Forma_1" data-name="Forma 1" class="cls-1" d="M1114,6435h0a10,10,0,0,0-8.1,15.86l-1.24,3.72,3.84-1.23A10,10,0,1,0,1114,6435Zm5.82,14.12a2.81,2.81,0,0,1-1.96,1.41c-0.52.11-1.21,0.2-3.5-.75a12.434,12.434,0,0,1-4.98-4.4,5.7,5.7,0,0,1-1.19-3.01,3.214,3.214,0,0,1,1.02-2.44,1.478,1.478,0,0,1,1.02-.36c0.13,0,.24.01,0.34,0.01a0.584,0.584,0,0,1,.63.5c0.25,0.58.83,2.01,0.9,2.16a0.6,0.6,0,0,1,.05.54,1.849,1.849,0,0,1-.33.46c-0.15.17-.29,0.3-0.43,0.48a0.474,0.474,0,0,0-.12.63,9.176,9.176,0,0,0,1.62,2.01,7.341,7.341,0,0,0,2.35,1.45,0.618,0.618,0,0,0,.7-0.11,9.987,9.987,0,0,0,.78-1.04,0.562,0.562,0,0,1,.72-0.21c0.27,0.09,1.7.8,1.99,0.94a1.456,1.456,0,0,1,.56.34A2.5,2.5,0,0,1,1119.82,6449.12Z" transform="translate(-1104 -6435)"/>
</svg>
